<svg width="146" height="21" viewBox="0 0 146 21" fill="none" xmlns="http://www.w3.org/2000/svg">
<rect width="146" height="21" fill="#F5F5F5"/>
<path d="M9.4 16V15.475C10.1667 15.475 10.65 15.375 10.85 15.175L9.45 11.35H4.65L3.35 15.025C3.51667 15.325 4.03333 15.475 4.9 15.475V16H0.8V15.475C1.73333 15.475 2.25833 15.3 2.375 14.95L7.225 1.375H8.425L13.275 14.95C13.3917 15.3 13.925 15.475 14.875 15.475V16H9.4ZM7.025 4.7L4.95 10.525H9.15L7.025 4.7ZM22.9475 1.725C22.9475 2.00833 22.8475 2.23333 22.6475 2.4C22.4641 2.56667 22.2225 2.65 21.9225 2.65C21.6391 2.65 21.4225 2.56667 21.2725 2.4C21.1391 2.21667 21.0558 2.025 21.0225 1.825C21.0058 1.625 20.9308 1.44167 20.7975 1.275C20.6808 1.09167 20.4891 0.999999 20.2225 0.999999C19.9058 0.999999 19.6391 1.24167 19.4225 1.725C19.2225 2.20833 19.1225 2.9 19.1225 3.8V5H20.6725V5.75H19.1225V14.975C19.2725 15.3083 19.7975 15.475 20.6975 15.475V16H15.2975V15.475C16.1975 15.475 16.7225 15.3083 16.8725 14.975V5.75H15.6225V5H16.8725V4.15C16.8725 2.78333 17.1558 1.79167 17.7225 1.175C18.2891 0.558332 19.0391 0.249999 19.9725 0.249999C20.9558 0.249999 21.6975 0.399999 22.1975 0.699999C22.6975 0.999999 22.9475 1.34167 22.9475 1.725ZM22.2096 16V15.475C23.1096 15.475 23.6346 15.3083 23.7846 14.975V6.525C22.7512 6.44167 22.2262 6.4 22.2096 6.4V5.825C22.5262 5.825 23.1429 5.65 24.0596 5.3C24.9929 4.93333 25.6512 4.75 26.0346 4.75V5.85C26.8679 5.11667 27.6929 4.75 28.5096 4.75C29.2596 4.75 29.8846 4.89167 30.3846 5.175C30.9012 5.45833 31.1596 5.775 31.1596 6.125C31.1596 6.725 30.8262 7.025 30.1596 7.025C29.8096 7.025 29.4929 6.79167 29.2096 6.325C28.9262 5.84167 28.6012 5.6 28.2346 5.6C27.5846 5.6 26.8512 5.95833 26.0346 6.675V14.975C26.1846 15.3083 26.7096 15.475 27.6096 15.475V16H22.2096ZM32.0729 16V15.475C32.9729 15.475 33.4979 15.3083 33.6479 14.975V6.525C32.6145 6.44167 32.0895 6.4 32.0729 6.4V5.825C32.3895 5.825 33.0062 5.65 33.9229 5.3C34.8562 4.93333 35.5145 4.75 35.8979 4.75V14.975C36.0479 15.3083 36.5729 15.475 37.4729 15.475V16H32.0729ZM34.6979 3.15C34.3312 3.15 34.0062 3.01667 33.7229 2.75C33.4562 2.46667 33.3229 2.10833 33.3229 1.675C33.3229 1.29167 33.4395 0.958333 33.6729 0.674999C33.9229 0.391665 34.2395 0.249999 34.6229 0.249999C34.9895 0.249999 35.3145 0.391665 35.5979 0.674999C35.8812 0.958333 36.0229 1.31667 36.0229 1.75C36.0229 2.13333 35.8979 2.46667 35.6479 2.75C35.3979 3.01667 35.0812 3.15 34.6979 3.15ZM44.6652 5.5C43.6319 5.5 42.7986 5.89167 42.1652 6.675C41.5319 7.45833 41.2152 8.51667 41.2152 9.85C41.2152 11.2667 41.6069 12.5333 42.3902 13.65C43.1902 14.75 44.0902 15.3 45.0902 15.3C46.5402 15.3 47.7069 14.75 48.5902 13.65L49.1902 13.95C48.7069 14.75 48.0736 15.3333 47.2902 15.7C46.5236 16.0667 45.5069 16.25 44.2402 16.25C43.6069 16.25 42.9986 16.1583 42.4152 15.975C41.8319 15.775 41.2569 15.4583 40.6902 15.025C40.1236 14.575 39.6736 13.9167 39.3402 13.05C39.0069 12.1833 38.8402 11.15 38.8402 9.95C38.8402 8.5 39.3486 7.275 40.3652 6.275C41.3986 5.25833 42.7486 4.75 44.4152 4.75C45.7319 4.75 46.7486 4.975 47.4652 5.425C48.1819 5.875 48.5402 6.53333 48.5402 7.4C48.5402 7.78333 48.4402 8.09167 48.2402 8.325C48.0402 8.54167 47.7819 8.65 47.4652 8.65C47.1652 8.65 46.8986 8.575 46.6652 8.425C46.4486 8.275 46.3402 8.05833 46.3402 7.775C46.3402 7.425 46.4236 7.16667 46.5902 7C46.7736 6.83333 46.9819 6.75 47.2152 6.75C46.9986 5.91667 46.1486 5.5 44.6652 5.5ZM52.6281 6.85C52.8615 6.85 53.0615 6.93333 53.2281 7.1C53.4115 7.26667 53.5031 7.525 53.5031 7.875C53.5031 8.15833 53.3865 8.375 53.1531 8.525C52.9365 8.675 52.6781 8.75 52.3781 8.75C52.0615 8.75 51.8031 8.64167 51.6031 8.425C51.4031 8.19167 51.3031 7.88333 51.3031 7.5C51.3031 6.63333 51.6615 5.95833 52.3781 5.475C53.0948 4.99167 54.1115 4.75 55.4281 4.75C56.9781 4.75 58.1115 5.13333 58.8281 5.9C59.5615 6.66667 59.9281 7.68333 59.9281 8.95V13.9C59.9281 14.4333 60.0115 14.825 60.1781 15.075C60.3615 15.325 60.5781 15.45 60.8281 15.45C61.0448 15.45 61.2365 15.3917 61.4031 15.275C61.5865 15.1583 61.6781 15.0167 61.6781 14.85H62.1281C62.1281 15.3167 61.9531 15.6583 61.6031 15.875C61.2698 16.0917 60.6781 16.2 59.8281 16.2C58.9948 16.2 58.4031 15.8583 58.0531 15.175C57.0698 15.8917 55.8448 16.25 54.3781 16.25C51.8781 16.25 50.6281 15.2333 50.6281 13.2C50.6281 12.7667 50.7781 12.375 51.0781 12.025C51.3948 11.675 51.8448 11.3833 52.4281 11.15C53.0115 10.9167 53.5615 10.7333 54.0781 10.6C54.5948 10.45 55.2365 10.2917 56.0031 10.125C56.7865 9.94167 57.3448 9.8 57.6781 9.7C57.6781 8.3 57.4948 7.275 57.1281 6.625C56.7615 5.975 56.1115 5.65 55.1781 5.65C53.6781 5.65 52.8281 6.05 52.6281 6.85ZM57.8281 14.55C57.7281 14.1833 57.6781 13.7333 57.6781 13.2V10.25C57.4948 10.3167 57.1781 10.4083 56.7281 10.525C56.2948 10.6417 55.9365 10.7417 55.6531 10.825C55.3865 10.9083 55.0615 11.0333 54.6781 11.2C54.2948 11.3667 53.9948 11.5333 53.7781 11.7C53.5615 11.8667 53.3698 12.0917 53.2031 12.375C53.0365 12.6417 52.9531 12.9333 52.9531 13.25C52.9531 14.05 53.1031 14.6083 53.4031 14.925C53.7198 15.2417 54.1865 15.4 54.8031 15.4C55.9031 15.4 56.9115 15.1167 57.8281 14.55ZM62.6881 16V15.475C63.5881 15.475 64.1131 15.3083 64.2631 14.975V6.525C63.2298 6.44167 62.7048 6.4 62.6881 6.4V5.825C63.0048 5.825 63.6214 5.65 64.5381 5.3C65.4714 4.93333 66.1298 4.75 66.5131 4.75V5.9C67.4131 5.13333 68.4048 4.75 69.4881 4.75C71.0381 4.75 72.1548 5.04167 72.8381 5.625C73.5381 6.19167 73.8881 7.08333 73.8881 8.3V14.975C74.0381 15.3083 74.5631 15.475 75.4631 15.475V16H70.0631V15.475C70.9631 15.475 71.4881 15.3083 71.6381 14.975V8.125C71.6381 6.44167 70.8714 5.6 69.3381 5.6C68.2881 5.6 67.3464 5.96667 66.5131 6.7V14.975C66.6631 15.3083 67.1881 15.475 68.0881 15.475V16H62.6881Z" fill="#EDFF1E"/>
<path d="M9.4 16V15.475C10.1667 15.475 10.65 15.375 10.85 15.175L9.45 11.35H4.65L3.35 15.025C3.51667 15.325 4.03333 15.475 4.9 15.475V16H0.8V15.475C1.73333 15.475 2.25833 15.3 2.375 14.95L7.225 1.375H8.425L13.275 14.95C13.3917 15.3 13.925 15.475 14.875 15.475V16H9.4ZM7.025 4.7L4.95 10.525H9.15L7.025 4.7ZM22.9475 1.725C22.9475 2.00833 22.8475 2.23333 22.6475 2.4C22.4641 2.56667 22.2225 2.65 21.9225 2.65C21.6391 2.65 21.4225 2.56667 21.2725 2.4C21.1391 2.21667 21.0558 2.025 21.0225 1.825C21.0058 1.625 20.9308 1.44167 20.7975 1.275C20.6808 1.09167 20.4891 0.999999 20.2225 0.999999C19.9058 0.999999 19.6391 1.24167 19.4225 1.725C19.2225 2.20833 19.1225 2.9 19.1225 3.8V5H20.6725V5.75H19.1225V14.975C19.2725 15.3083 19.7975 15.475 20.6975 15.475V16H15.2975V15.475C16.1975 15.475 16.7225 15.3083 16.8725 14.975V5.75H15.6225V5H16.8725V4.15C16.8725 2.78333 17.1558 1.79167 17.7225 1.175C18.2891 0.558332 19.0391 0.249999 19.9725 0.249999C20.9558 0.249999 21.6975 0.399999 22.1975 0.699999C22.6975 0.999999 22.9475 1.34167 22.9475 1.725ZM22.2096 16V15.475C23.1096 15.475 23.6346 15.3083 23.7846 14.975V6.525C22.7512 6.44167 22.2262 6.4 22.2096 6.4V5.825C22.5262 5.825 23.1429 5.65 24.0596 5.3C24.9929 4.93333 25.6512 4.75 26.0346 4.75V5.85C26.8679 5.11667 27.6929 4.75 28.5096 4.75C29.2596 4.75 29.8846 4.89167 30.3846 5.175C30.9012 5.45833 31.1596 5.775 31.1596 6.125C31.1596 6.725 30.8262 7.025 30.1596 7.025C29.8096 7.025 29.4929 6.79167 29.2096 6.325C28.9262 5.84167 28.6012 5.6 28.2346 5.6C27.5846 5.6 26.8512 5.95833 26.0346 6.675V14.975C26.1846 15.3083 26.7096 15.475 27.6096 15.475V16H22.2096ZM32.0729 16V15.475C32.9729 15.475 33.4979 15.3083 33.6479 14.975V6.525C32.6145 6.44167 32.0895 6.4 32.0729 6.4V5.825C32.3895 5.825 33.0062 5.65 33.9229 5.3C34.8562 4.93333 35.5145 4.75 35.8979 4.75V14.975C36.0479 15.3083 36.5729 15.475 37.4729 15.475V16H32.0729ZM34.6979 3.15C34.3312 3.15 34.0062 3.01667 33.7229 2.75C33.4562 2.46667 33.3229 2.10833 33.3229 1.675C33.3229 1.29167 33.4395 0.958333 33.6729 0.674999C33.9229 0.391665 34.2395 0.249999 34.6229 0.249999C34.9895 0.249999 35.3145 0.391665 35.5979 0.674999C35.8812 0.958333 36.0229 1.31667 36.0229 1.75C36.0229 2.13333 35.8979 2.46667 35.6479 2.75C35.3979 3.01667 35.0812 3.15 34.6979 3.15ZM44.6652 5.5C43.6319 5.5 42.7986 5.89167 42.1652 6.675C41.5319 7.45833 41.2152 8.51667 41.2152 9.85C41.2152 11.2667 41.6069 12.5333 42.3902 13.65C43.1902 14.75 44.0902 15.3 45.0902 15.3C46.5402 15.3 47.7069 14.75 48.5902 13.65L49.1902 13.95C48.7069 14.75 48.0736 15.3333 47.2902 15.7C46.5236 16.0667 45.5069 16.25 44.2402 16.25C43.6069 16.25 42.9986 16.1583 42.4152 15.975C41.8319 15.775 41.2569 15.4583 40.6902 15.025C40.1236 14.575 39.6736 13.9167 39.3402 13.05C39.0069 12.1833 38.8402 11.15 38.8402 9.95C38.8402 8.5 39.3486 7.275 40.3652 6.275C41.3986 5.25833 42.7486 4.75 44.4152 4.75C45.7319 4.75 46.7486 4.975 47.4652 5.425C48.1819 5.875 48.5402 6.53333 48.5402 7.4C48.5402 7.78333 48.4402 8.09167 48.2402 8.325C48.0402 8.54167 47.7819 8.65 47.4652 8.65C47.1652 8.65 46.8986 8.575 46.6652 8.425C46.4486 8.275 46.3402 8.05833 46.3402 7.775C46.3402 7.425 46.4236 7.16667 46.5902 7C46.7736 6.83333 46.9819 6.75 47.2152 6.75C46.9986 5.91667 46.1486 5.5 44.6652 5.5ZM52.6281 6.85C52.8615 6.85 53.0615 6.93333 53.2281 7.1C53.4115 7.26667 53.5031 7.525 53.5031 7.875C53.5031 8.15833 53.3865 8.375 53.1531 8.525C52.9365 8.675 52.6781 8.75 52.3781 8.75C52.0615 8.75 51.8031 8.64167 51.6031 8.425C51.4031 8.19167 51.3031 7.88333 51.3031 7.5C51.3031 6.63333 51.6615 5.95833 52.3781 5.475C53.0948 4.99167 54.1115 4.75 55.4281 4.75C56.9781 4.75 58.1115 5.13333 58.8281 5.9C59.5615 6.66667 59.9281 7.68333 59.9281 8.95V13.9C59.9281 14.4333 60.0115 14.825 60.1781 15.075C60.3615 15.325 60.5781 15.45 60.8281 15.45C61.0448 15.45 61.2365 15.3917 61.4031 15.275C61.5865 15.1583 61.6781 15.0167 61.6781 14.85H62.1281C62.1281 15.3167 61.9531 15.6583 61.6031 15.875C61.2698 16.0917 60.6781 16.2 59.8281 16.2C58.9948 16.2 58.4031 15.8583 58.0531 15.175C57.0698 15.8917 55.8448 16.25 54.3781 16.25C51.8781 16.25 50.6281 15.2333 50.6281 13.2C50.6281 12.7667 50.7781 12.375 51.0781 12.025C51.3948 11.675 51.8448 11.3833 52.4281 11.15C53.0115 10.9167 53.5615 10.7333 54.0781 10.6C54.5948 10.45 55.2365 10.2917 56.0031 10.125C56.7865 9.94167 57.3448 9.8 57.6781 9.7C57.6781 8.3 57.4948 7.275 57.1281 6.625C56.7615 5.975 56.1115 5.65 55.1781 5.65C53.6781 5.65 52.8281 6.05 52.6281 6.85ZM57.8281 14.55C57.7281 14.1833 57.6781 13.7333 57.6781 13.2V10.25C57.4948 10.3167 57.1781 10.4083 56.7281 10.525C56.2948 10.6417 55.9365 10.7417 55.6531 10.825C55.3865 10.9083 55.0615 11.0333 54.6781 11.2C54.2948 11.3667 53.9948 11.5333 53.7781 11.7C53.5615 11.8667 53.3698 12.0917 53.2031 12.375C53.0365 12.6417 52.9531 12.9333 52.9531 13.25C52.9531 14.05 53.1031 14.6083 53.4031 14.925C53.7198 15.2417 54.1865 15.4 54.8031 15.4C55.9031 15.4 56.9115 15.1167 57.8281 14.55ZM62.6881 16V15.475C63.5881 15.475 64.1131 15.3083 64.2631 14.975V6.525C63.2298 6.44167 62.7048 6.4 62.6881 6.4V5.825C63.0048 5.825 63.6214 5.65 64.5381 5.3C65.4714 4.93333 66.1298 4.75 66.5131 4.75V5.9C67.4131 5.13333 68.4048 4.75 69.4881 4.75C71.0381 4.75 72.1548 5.04167 72.8381 5.625C73.5381 6.19167 73.8881 7.08333 73.8881 8.3V14.975C74.0381 15.3083 74.5631 15.475 75.4631 15.475V16H70.0631V15.475C70.9631 15.475 71.4881 15.3083 71.6381 14.975V8.125C71.6381 6.44167 70.8714 5.6 69.3381 5.6C68.2881 5.6 67.3464 5.96667 66.5131 6.7V14.975C66.6631 15.3083 67.1881 15.475 68.0881 15.475V16H62.6881Z" fill="#0D0C0C" fill-opacity="0.2"/>
<path d="M76.9279 16V15.475C77.8279 15.475 78.3529 15.3083 78.5029 14.975V2.4C78.3529 2.06667 77.8279 1.9 76.9279 1.9V1.375H82.5779C84.6446 1.375 86.2113 1.75 87.2779 2.5C88.3446 3.25 88.8779 4.10833 88.8779 5.075C88.8779 5.99167 88.6029 6.8 88.0529 7.5C87.5029 8.18333 86.6863 8.68333 85.6029 9L88.9279 14.95C89.0946 15.3 89.6446 15.475 90.5779 15.475V16H89.5029C88.3363 16 87.5779 15.9333 87.2279 15.8C86.8779 15.6667 86.5279 15.3 86.1779 14.7L83.1529 9.35H80.8029V14.975C80.9529 15.3083 81.4779 15.475 82.3779 15.475V16H76.9279ZM80.8029 2.225V8.5H82.8779C84.2113 8.5 85.1279 8.24167 85.6279 7.725C86.1279 7.20833 86.3779 6.33333 86.3779 5.1C86.3779 4.18333 86.0946 3.475 85.5279 2.975C84.9779 2.475 83.9946 2.225 82.5779 2.225H80.8029ZM93.5346 9.975C93.5512 11.375 93.9512 12.6167 94.7346 13.7C95.5346 14.7667 96.4262 15.3 97.4096 15.3C98.8596 15.3 100.026 14.75 100.91 13.65L101.51 13.95C101.026 14.75 100.393 15.3333 99.6096 15.7C98.8429 16.0667 97.8262 16.25 96.5596 16.25C95.9262 16.25 95.3179 16.1583 94.7346 15.975C94.1512 15.775 93.5762 15.4583 93.0096 15.025C92.4429 14.575 91.9929 13.9167 91.6596 13.05C91.3262 12.1833 91.1596 11.15 91.1596 9.95C91.1596 8.48333 91.6096 7.25 92.5096 6.25C93.4262 5.25 94.6929 4.75 96.3096 4.75C98.0762 4.75 99.3929 5.25 100.26 6.25C101.126 7.23333 101.56 8.475 101.56 9.975H93.5346ZM93.5596 9.2H99.1096C99.0096 8 98.7512 7.08333 98.3346 6.45C97.9346 5.81667 97.2262 5.5 96.2096 5.5C95.6262 5.5 95.0596 5.84167 94.5096 6.525C93.9762 7.20833 93.6596 8.1 93.5596 9.2ZM109.314 5.5C108.28 5.5 107.447 5.89167 106.814 6.675C106.18 7.45833 105.864 8.51667 105.864 9.85C105.864 11.2667 106.255 12.5333 107.039 13.65C107.839 14.75 108.739 15.3 109.739 15.3C111.189 15.3 112.355 14.75 113.239 13.65L113.839 13.95C113.355 14.75 112.722 15.3333 111.939 15.7C111.172 16.0667 110.155 16.25 108.889 16.25C108.255 16.25 107.647 16.1583 107.064 15.975C106.48 15.775 105.905 15.4583 105.339 15.025C104.772 14.575 104.322 13.9167 103.989 13.05C103.655 12.1833 103.489 11.15 103.489 9.95C103.489 8.5 103.997 7.275 105.014 6.275C106.047 5.25833 107.397 4.75 109.064 4.75C110.38 4.75 111.397 4.975 112.114 5.425C112.83 5.875 113.189 6.53333 113.189 7.4C113.189 7.78333 113.089 8.09167 112.889 8.325C112.689 8.54167 112.43 8.65 112.114 8.65C111.814 8.65 111.547 8.575 111.314 8.425C111.097 8.275 110.989 8.05833 110.989 7.775C110.989 7.425 111.072 7.16667 111.239 7C111.422 6.83333 111.63 6.75 111.864 6.75C111.647 5.91667 110.797 5.5 109.314 5.5ZM115.252 16V15.475C116.152 15.475 116.677 15.3083 116.827 14.975V6.525C115.793 6.44167 115.268 6.4 115.252 6.4V5.825C115.568 5.825 116.185 5.65 117.102 5.3C118.035 4.93333 118.693 4.75 119.077 4.75V14.975C119.227 15.3083 119.752 15.475 120.652 15.475V16H115.252ZM117.877 3.15C117.51 3.15 117.185 3.01667 116.902 2.75C116.635 2.46667 116.502 2.10833 116.502 1.675C116.502 1.29167 116.618 0.958333 116.852 0.674999C117.102 0.391665 117.418 0.249999 117.802 0.249999C118.168 0.249999 118.493 0.391665 118.777 0.674999C119.06 0.958333 119.202 1.31667 119.202 1.75C119.202 2.13333 119.077 2.46667 118.827 2.75C118.577 3.01667 118.26 3.15 117.877 3.15ZM121.716 20.8V20.275C122.616 20.275 123.141 20.1083 123.291 19.775V6.525C123.291 6.525 122.766 6.48333 121.716 6.4V5.825C122.033 5.825 122.649 5.65 123.566 5.3C124.499 4.93333 125.158 4.75 125.541 4.75V5.575C126.341 5.025 127.341 4.75 128.541 4.75C129.091 4.75 129.633 4.85 130.166 5.05C130.716 5.23333 131.258 5.53333 131.791 5.95C132.341 6.35 132.783 6.95 133.116 7.75C133.466 8.55 133.641 9.48333 133.641 10.55C133.641 12.4 133.124 13.8167 132.091 14.8C131.058 15.7667 129.691 16.25 127.991 16.25C127.024 16.25 126.208 16.0667 125.541 15.7V19.775C125.691 20.1083 126.216 20.275 127.116 20.275V20.8H121.716ZM125.541 14.9C126.174 15.2333 126.941 15.4 127.841 15.4C128.758 15.4 129.558 14.975 130.241 14.125C130.924 13.275 131.266 12.0833 131.266 10.55C131.266 9.53333 130.966 8.45833 130.366 7.325C129.783 6.175 129.091 5.6 128.291 5.6C127.141 5.6 126.224 5.86667 125.541 6.4V14.9ZM137.968 9.975C137.985 11.375 138.385 12.6167 139.168 13.7C139.968 14.7667 140.86 15.3 141.843 15.3C143.293 15.3 144.46 14.75 145.343 13.65L145.943 13.95C145.46 14.75 144.826 15.3333 144.043 15.7C143.276 16.0667 142.26 16.25 140.993 16.25C140.36 16.25 139.751 16.1583 139.168 15.975C138.585 15.775 138.01 15.4583 137.443 15.025C136.876 14.575 136.426 13.9167 136.093 13.05C135.76 12.1833 135.593 11.15 135.593 9.95C135.593 8.48333 136.043 7.25 136.943 6.25C137.86 5.25 139.126 4.75 140.743 4.75C142.51 4.75 143.826 5.25 144.693 6.25C145.56 7.23333 145.993 8.475 145.993 9.975H137.968ZM137.993 9.2H143.543C143.443 8 143.185 7.08333 142.768 6.45C142.368 5.81667 141.66 5.5 140.643 5.5C140.06 5.5 139.493 5.84167 138.943 6.525C138.41 7.20833 138.093 8.1 137.993 9.2Z" fill="#1A1B19"/>
<path d="M76.9279 16V15.475C77.8279 15.475 78.3529 15.3083 78.5029 14.975V2.4C78.3529 2.06667 77.8279 1.9 76.9279 1.9V1.375H82.5779C84.6446 1.375 86.2113 1.75 87.2779 2.5C88.3446 3.25 88.8779 4.10833 88.8779 5.075C88.8779 5.99167 88.6029 6.8 88.0529 7.5C87.5029 8.18333 86.6863 8.68333 85.6029 9L88.9279 14.95C89.0946 15.3 89.6446 15.475 90.5779 15.475V16H89.5029C88.3363 16 87.5779 15.9333 87.2279 15.8C86.8779 15.6667 86.5279 15.3 86.1779 14.7L83.1529 9.35H80.8029V14.975C80.9529 15.3083 81.4779 15.475 82.3779 15.475V16H76.9279ZM80.8029 2.225V8.5H82.8779C84.2113 8.5 85.1279 8.24167 85.6279 7.725C86.1279 7.20833 86.3779 6.33333 86.3779 5.1C86.3779 4.18333 86.0946 3.475 85.5279 2.975C84.9779 2.475 83.9946 2.225 82.5779 2.225H80.8029ZM93.5346 9.975C93.5512 11.375 93.9512 12.6167 94.7346 13.7C95.5346 14.7667 96.4262 15.3 97.4096 15.3C98.8596 15.3 100.026 14.75 100.91 13.65L101.51 13.95C101.026 14.75 100.393 15.3333 99.6096 15.7C98.8429 16.0667 97.8262 16.25 96.5596 16.25C95.9262 16.25 95.3179 16.1583 94.7346 15.975C94.1512 15.775 93.5762 15.4583 93.0096 15.025C92.4429 14.575 91.9929 13.9167 91.6596 13.05C91.3262 12.1833 91.1596 11.15 91.1596 9.95C91.1596 8.48333 91.6096 7.25 92.5096 6.25C93.4262 5.25 94.6929 4.75 96.3096 4.75C98.0762 4.75 99.3929 5.25 100.26 6.25C101.126 7.23333 101.56 8.475 101.56 9.975H93.5346ZM93.5596 9.2H99.1096C99.0096 8 98.7512 7.08333 98.3346 6.45C97.9346 5.81667 97.2262 5.5 96.2096 5.5C95.6262 5.5 95.0596 5.84167 94.5096 6.525C93.9762 7.20833 93.6596 8.1 93.5596 9.2ZM109.314 5.5C108.28 5.5 107.447 5.89167 106.814 6.675C106.18 7.45833 105.864 8.51667 105.864 9.85C105.864 11.2667 106.255 12.5333 107.039 13.65C107.839 14.75 108.739 15.3 109.739 15.3C111.189 15.3 112.355 14.75 113.239 13.65L113.839 13.95C113.355 14.75 112.722 15.3333 111.939 15.7C111.172 16.0667 110.155 16.25 108.889 16.25C108.255 16.25 107.647 16.1583 107.064 15.975C106.48 15.775 105.905 15.4583 105.339 15.025C104.772 14.575 104.322 13.9167 103.989 13.05C103.655 12.1833 103.489 11.15 103.489 9.95C103.489 8.5 103.997 7.275 105.014 6.275C106.047 5.25833 107.397 4.75 109.064 4.75C110.38 4.75 111.397 4.975 112.114 5.425C112.83 5.875 113.189 6.53333 113.189 7.4C113.189 7.78333 113.089 8.09167 112.889 8.325C112.689 8.54167 112.43 8.65 112.114 8.65C111.814 8.65 111.547 8.575 111.314 8.425C111.097 8.275 110.989 8.05833 110.989 7.775C110.989 7.425 111.072 7.16667 111.239 7C111.422 6.83333 111.63 6.75 111.864 6.75C111.647 5.91667 110.797 5.5 109.314 5.5ZM115.252 16V15.475C116.152 15.475 116.677 15.3083 116.827 14.975V6.525C115.793 6.44167 115.268 6.4 115.252 6.4V5.825C115.568 5.825 116.185 5.65 117.102 5.3C118.035 4.93333 118.693 4.75 119.077 4.75V14.975C119.227 15.3083 119.752 15.475 120.652 15.475V16H115.252ZM117.877 3.15C117.51 3.15 117.185 3.01667 116.902 2.75C116.635 2.46667 116.502 2.10833 116.502 1.675C116.502 1.29167 116.618 0.958333 116.852 0.674999C117.102 0.391665 117.418 0.249999 117.802 0.249999C118.168 0.249999 118.493 0.391665 118.777 0.674999C119.06 0.958333 119.202 1.31667 119.202 1.75C119.202 2.13333 119.077 2.46667 118.827 2.75C118.577 3.01667 118.26 3.15 117.877 3.15ZM121.716 20.8V20.275C122.616 20.275 123.141 20.1083 123.291 19.775V6.525C123.291 6.525 122.766 6.48333 121.716 6.4V5.825C122.033 5.825 122.649 5.65 123.566 5.3C124.499 4.93333 125.158 4.75 125.541 4.75V5.575C126.341 5.025 127.341 4.75 128.541 4.75C129.091 4.75 129.633 4.85 130.166 5.05C130.716 5.23333 131.258 5.53333 131.791 5.95C132.341 6.35 132.783 6.95 133.116 7.75C133.466 8.55 133.641 9.48333 133.641 10.55C133.641 12.4 133.124 13.8167 132.091 14.8C131.058 15.7667 129.691 16.25 127.991 16.25C127.024 16.25 126.208 16.0667 125.541 15.7V19.775C125.691 20.1083 126.216 20.275 127.116 20.275V20.8H121.716ZM125.541 14.9C126.174 15.2333 126.941 15.4 127.841 15.4C128.758 15.4 129.558 14.975 130.241 14.125C130.924 13.275 131.266 12.0833 131.266 10.55C131.266 9.53333 130.966 8.45833 130.366 7.325C129.783 6.175 129.091 5.6 128.291 5.6C127.141 5.6 126.224 5.86667 125.541 6.4V14.9ZM137.968 9.975C137.985 11.375 138.385 12.6167 139.168 13.7C139.968 14.7667 140.86 15.3 141.843 15.3C143.293 15.3 144.46 14.75 145.343 13.65L145.943 13.95C145.46 14.75 144.826 15.3333 144.043 15.7C143.276 16.0667 142.26 16.25 140.993 16.25C140.36 16.25 139.751 16.1583 139.168 15.975C138.585 15.775 138.01 15.4583 137.443 15.025C136.876 14.575 136.426 13.9167 136.093 13.05C135.76 12.1833 135.593 11.15 135.593 9.95C135.593 8.48333 136.043 7.25 136.943 6.25C137.86 5.25 139.126 4.75 140.743 4.75C142.51 4.75 143.826 5.25 144.693 6.25C145.56 7.23333 145.993 8.475 145.993 9.975H137.968ZM137.993 9.2H143.543C143.443 8 143.185 7.08333 142.768 6.45C142.368 5.81667 141.66 5.5 140.643 5.5C140.06 5.5 139.493 5.84167 138.943 6.525C138.41 7.20833 138.093 8.1 137.993 9.2Z" fill="#0D0C0C" fill-opacity="0.2"/>
</svg>
